<svg xmlns="http://www.w3.org/2000/svg" width="168" height="88" fill="none"><rect width="167" height="87" x=".5" y=".5" stroke="#8E8F99" rx="3.5"/><path fill="#8E8F99" d="M68.81 65.223c.016 0 .032.004.046.01a.123.123 0 0 1 .04.023l.22.208a1.819 1.819 0 0 1-.62.394c-.28.1-.58.148-.881.141a2.38 2.38 0 0 1-.828-.132 1.822 1.822 0 0 1-.624-.373 1.667 1.667 0 0 1-.403-.575 1.89 1.89 0 0 1-.141-.738 1.763 1.763 0 0 1 .152-.741c.096-.214.242-.41.427-.575a2.01 2.01 0 0 1 .663-.376 2.64 2.64 0 0 1 .853-.132c.27-.005.54.036.792.12.219.082.42.194.594.333l-.185.222a.179.179 0 0 1-.047.04.128.128 0 0 1-.075.017.183.183 0 0 1-.08-.024l-.1-.059-.137-.075a1.604 1.604 0 0 0-.436-.133 1.97 1.97 0 0 0-.329-.023 1.813 1.813 0 0 0-.613.099 1.41 1.41 0 0 0-.48.278c-.137.129-.244.28-.312.444a1.47 1.47 0 0 0-.113.585 1.5 1.5 0 0 0 .113.594 1.262 1.262 0 0 0 .765.715c.18.064.373.096.568.094.113.002.226-.005.337-.019a1.348 1.348 0 0 0 .729-.304.175.175 0 0 1 .105-.038ZM75.186 64.18c.004.25-.047.5-.149.734a1.59 1.59 0 0 1-.416.57c-.184.162-.406.29-.652.373a2.732 2.732 0 0 1-1.678 0 1.944 1.944 0 0 1-.65-.375 1.67 1.67 0 0 1-.419-.575 1.885 1.885 0 0 1 0-1.47c.095-.214.237-.41.42-.578.185-.157.406-.28.649-.36.54-.18 1.138-.18 1.678 0 .245.085.467.212.651.375a1.689 1.689 0 0 1 .566 1.306Zm-.58 0c.005-.2-.03-.4-.104-.59a1.213 1.213 0 0 0-.762-.719 1.971 1.971 0 0 0-1.22 0 1.314 1.314 0 0 0-.467.279 1.184 1.184 0 0 0-.298.44c-.14.385-.14.796 0 1.18.062.163.164.313.298.441.13.12.29.215.467.276.393.126.826.126 1.22 0 .177-.061.337-.155.466-.276.133-.128.233-.278.296-.441.074-.19.11-.39.105-.59ZM79.537 64.799l.057.132c.023-.047.042-.09.064-.132.021-.045.045-.088.072-.13l1.41-2.19c.028-.039.053-.062.08-.07a.388.388 0 0 1 .116-.011h.417v3.563h-.494v-2.73a.929.929 0 0 1 0-.123l-1.419 2.221a.203.203 0 0 1-.083.081.252.252 0 0 1-.121.03h-.08a.25.25 0 0 1-.122-.03.2.2 0 0 1-.082-.08l-1.46-2.236V65.954h-.478v-3.556h.417a.389.389 0 0 1 .115.012.155.155 0 0 1 .078.068l1.44 2.193c.029.04.053.083.073.128ZM84.845 64.622v1.334h-.552v-3.558h1.23c.233-.004.465.022.688.078.179.043.344.118.486.221a.92.92 0 0 1 .276.35c.065.145.097.299.094.455a.99.99 0 0 1-.4.811 1.42 1.42 0 0 1-.49.236c-.214.058-.439.086-.664.082l-.668-.01Zm0-.382h.668c.145.001.29-.017.427-.055a.94.94 0 0 0 .31-.153.673.673 0 0 0 .254-.535.592.592 0 0 0-.056-.29.687.687 0 0 0-.193-.243 1.202 1.202 0 0 0-.742-.191h-.668v1.467ZM92.264 65.961h-.436a.21.21 0 0 1-.121-.033.224.224 0 0 1-.072-.082l-.375-.861h-1.886l-.389.86a.196.196 0 0 1-.069.08.21.21 0 0 1-.124.036h-.436l1.656-3.563h.574l1.678 3.563Zm-2.732-1.323h1.557l-.657-1.45a2.332 2.332 0 0 1-.125-.335l-.063.186c-.02.057-.041.108-.06.15l-.652 1.45ZM94.65 62.414a.234.234 0 0 1 .082.064l2.416 2.686v-2.767h.494v3.564h-.276a.273.273 0 0 1-.114-.02.3.3 0 0 1-.088-.067l-2.412-2.684a.964.964 0 0 1 0 .123v2.648h-.494v-3.563h.292c.034-.001.068.004.1.016ZM101.71 64.544v1.415h-.552v-1.415l-1.526-2.146h.494a.202.202 0 0 1 .119.03c.03.023.055.05.074.08l.955 1.385a1.698 1.698 0 0 1 .169.316l.071-.153c.027-.056.059-.11.094-.163l.942-1.394a.346.346 0 0 1 .071-.076.189.189 0 0 1 .119-.035h.5l-1.53 2.156ZM79.263 56.417c.24.026.483.047.729.066 3.724-1.423 6.875-3.753 9.059-6.699 2.183-2.945 3.302-6.374 3.216-9.86l-4.104-3.507c.834 3.711.444 7.547-1.128 11.08-1.572 3.531-4.263 6.62-7.772 8.92Z"/><path fill="#8E8F99" d="m77.797 56.254.11.019c3.75-2.292 6.61-5.492 8.208-9.187 1.599-3.695 1.863-7.714.759-11.539l-5.847-4.995c2.365 4.106 3.317 8.701 2.745 13.25-.572 4.55-2.644 8.868-5.975 12.452ZM97.625 44.042c-.993 3.83-3.406 7.284-6.879 9.85a21.958 21.958 0 0 1-3.268 2.004c2.828-.71 5.428-1.966 7.598-3.67 2.17-1.705 3.854-3.812 4.92-6.16l-2.37-2.024Z"/><path fill="#8E8F99" d="m96.695 43.478-3.376-2.884c-.065 3.288-1.159 6.502-3.169 9.307-2.01 2.805-4.863 5.099-8.262 6.643h.017c.757 0 1.514-.039 2.266-.115 3.176-1.108 5.982-2.87 8.168-5.13 2.185-2.26 3.682-4.947 4.356-7.82ZM78.286 28.446 74.26 25c-3.6 1.189-6.697 3.278-8.884 5.995-2.188 2.718-3.364 5.936-3.375 9.233.014 3.645 1.449 7.18 4.08 10.049 2.63 2.868 6.305 4.905 10.442 5.789 3.694-3.846 5.857-8.597 6.174-13.564.317-4.967-1.228-9.89-4.41-14.056ZM106 42.948c-.015-4.324-2.031-8.466-5.609-11.523-3.578-3.057-8.427-4.78-13.487-4.793a21.774 21.774 0 0 0-6.837 1.087l24.658 21.068a14.099 14.099 0 0 0 1.275-5.84Z"/></svg>