<svg xmlns="http://www.w3.org/2000/svg" width="168" height="88" fill="none"><rect width="167" height="87" x=".5" y=".5" stroke="#8E8F99" rx="3.5"/><path fill="#8E8F99" d="M85.53 43.443a2.953 2.953 0 0 1-.607-1.992v-2.888c0-.885.201-1.558.603-2.018.402-.46 1.092-.69 2.07-.688.92 0 1.572.196 1.958.588.42.5.625 1.111.578 1.727v.68h-1.644v-.688c.006-.225-.01-.45-.048-.673a.652.652 0 0 0-.234-.4.951.951 0 0 0-.596-.155 1.007 1.007 0 0 0-.627.164.769.769 0 0 0-.272.44 3.342 3.342 0 0 0-.065.715v3.505a1.79 1.79 0 0 0 .211.984.772.772 0 0 0 .328.239c.133.051.28.07.425.055.21.015.42-.042.582-.159a.706.706 0 0 0 .245-.426c.038-.232.056-.467.051-.702v-.711h1.644v.65a2.643 2.643 0 0 1-.568 1.815c-.378.429-1.021.643-1.968.643-.947 0-1.662-.229-2.067-.705ZM92.376 43.473c-.415-.45-.623-1.105-.623-1.972v-3.038c0-.858.208-1.507.623-1.948.416-.44 1.11-.66 2.084-.658.967 0 1.658.22 2.073.658.416.441.627 1.09.627 1.948v3.038c0 .858-.211 1.516-.633 1.969-.423.452-1.11.678-2.067.678-.957 0-1.665-.229-2.084-.675Zm2.85-.729c.149-.282.216-.59.198-.899v-3.72a1.65 1.65 0 0 0-.195-.88.776.776 0 0 0-.335-.243.907.907 0 0 0-.434-.052.92.92 0 0 0-.435.052.789.789 0 0 0-.338.242c-.15.275-.218.578-.197.882v3.737c-.021.309.047.617.197.899.096.094.214.17.347.222a1.161 1.161 0 0 0 .845 0c.133-.052.251-.128.347-.222v-.018ZM99.138 35.946h1.77l1.331 5.605 1.362-5.605h1.723l.174 8.09h-1.274l-.136-5.622-1.314 5.622h-1.021l-1.362-5.643-.126 5.643h-1.287l.16-8.09ZM107.483 35.946h2.758c1.588 0 2.383.766 2.383 2.297 0 1.467-.837 2.2-2.509 2.198h-.94v3.595h-1.702l.01-8.09Zm2.356 3.458c.168.018.339.005.501-.04.161-.043.31-.117.435-.216.195-.273.281-.594.245-.914a2.533 2.533 0 0 0-.081-.734.599.599 0 0 0-.126-.222.693.693 0 0 0-.215-.163 1.76 1.76 0 0 0-.759-.129h-.661v2.418h.661ZM115.079 35.946h1.828l1.876 8.09h-1.587l-.371-1.865h-1.631l-.381 1.865h-1.61l1.876-8.09Zm1.562 5.288-.636-3.396-.637 3.396h1.273ZM120.298 35.946h1.192l2.281 4.615v-4.615h1.413v8.09h-1.134l-2.295-4.817v4.817h-1.46l.003-8.09ZM128.493 40.952l-1.896-4.995h1.597l1.157 3.208 1.086-3.208H132l-1.873 4.995v3.084h-1.634v-3.084ZM88.158 47.574v.423h-1.39v3.287h-.581v-3.287H84.79v-.423h3.367ZM92.512 51.284h-.45a.2.2 0 0 1-.125-.035.193.193 0 0 1-.075-.085l-.402-.881h-1.927l-.402.881a.243.243 0 0 1-.06.1.208.208 0 0 1-.127.035h-.45l1.703-3.71h.593l1.722 3.695Zm-2.819-1.377H91.3l-.68-1.51a2.703 2.703 0 0 1-.127-.35l-.064.197-.062.156-.674 1.507ZM95.447 50.92c.107.005.214.005.32 0 .092-.008.183-.023.273-.044a2.1 2.1 0 0 0 .245-.067c.075-.027.15-.06.228-.092v-.834h-.681a.142.142 0 0 1-.05-.006.128.128 0 0 1-.042-.023.086.086 0 0 1-.026-.03.075.075 0 0 1-.008-.038v-.285h1.321v1.422a2.57 2.57 0 0 1-.718.303c-.14.035-.282.06-.426.076a5.153 5.153 0 0 1-.497.024 2.596 2.596 0 0 1-.858-.139 2.092 2.092 0 0 1-.681-.387 1.792 1.792 0 0 1-.44-.588 1.854 1.854 0 0 1-.156-.77 1.923 1.923 0 0 1 .153-.775c.098-.22.248-.42.44-.588.194-.167.426-.298.68-.385.292-.095.602-.141.913-.138.159 0 .317.01.473.032.139.02.274.051.405.094.12.039.234.088.34.147.105.058.204.123.297.194l-.163.23a.143.143 0 0 1-.056.05.17.17 0 0 1-.077.02.222.222 0 0 1-.106-.03 2.103 2.103 0 0 1-.166-.088 1.51 1.51 0 0 0-.229-.1 2.137 2.137 0 0 0-.313-.082 2.625 2.625 0 0 0-.432-.032 2.018 2.018 0 0 0-.657.103 1.44 1.44 0 0 0-.5.294c-.142.133-.25.29-.317.46a1.733 1.733 0 0 0 0 1.238c.074.174.19.333.34.467.14.127.31.227.497.294.217.064.446.089.674.073ZM100.874 50.861h1.859v.423h-2.427v-3.71h.582l-.014 3.287ZM104.667 51.284h-.582v-3.71h.582v3.71ZM106.833 47.591c.034.017.064.04.088.068l2.489 2.797a.73.73 0 0 1 0-.132v-2.765h.507v3.726h-.293a.277.277 0 0 1-.126-.021.344.344 0 0 1-.092-.07l-2.485-2.795v2.886h-.487v-3.711h.303c.033 0 .066.006.096.017ZM114.204 47.574v.408h-2.064v1.225h1.672v.394h-1.672v1.266h2.064v.408h-2.663v-3.701h2.663ZM53.195 24.659l25.852 6.334v22.195l-25.852-6.33v-22.2Zm-1.658-1.892v25.168l29.165 7.148V29.918l-29.165-7.151Z"/><path fill="#8E8F99" d="M67.168 66.767 38 59.613V34.447l29.168 7.15v25.17Z"/><path fill="#8E8F99" d="m52.02 24.374 25.515 6.254-10.85 9.366-25.519-6.258 10.855-9.362Zm-.483-1.607L38 34.447l29.168 7.151 13.534-11.68-29.165-7.151ZM68.81 65.35l11.892-10.264-11.893-2.917v13.182Z"/></svg>